<svg xmlns="http://www.w3.org/2000/svg" version="1.1" xmlns:xlink="http://www.w3.org/1999/xlink" viewBox="0 0 700 700" style="overflow: hidden; display: block;" width="700" height="700"><defs></defs><g id="two-0" transform="matrix(1 0 0 1 0 0)" opacity="1"><path transform="matrix(1 0 0 1 350 350)" id="two-30" d="M 279.519915 74.897135 C 266.24412 101.703964 213.115614 88.503042 197.847911 114.227544 C 182.991361 139.259298 227.408991 187.559161 202.321649 202.321649 C 157.519409 228.685244 113.189018 92.100962 68.67171 118.94289 C 15.379736 151.075546 140.600202 285.350925 82.267673 307.027135 C 39.620979 322.874531 30.695001 229.977438 0 196.396232 C -12.676574 182.527699 -23.687703 157.666665 -42.459969 158.462758 C -103.018254 161.030909 -109.306258 304.655192 -168.581279 291.99134 C -199.848613 285.311209 -181.557977 226.262858 -200.518732 200.518731 C -216.180701 179.253559 -260.177141 178.90494 -264.850211 152.91134 C -271.772663 114.405727 -202.892469 92.634016 -200.083082 53.6121 C -198.682681 34.16077 -214.047928 16.173596 -224.944262 0 C -245.235081 -30.117975 -312.777627 -46.383105 -300.078691 -80.405843 C -284.295073 -122.693 -209.151243 -92.894944 -164.051203 -94.715007 C -140.616396 -95.660744 -106.788695 -74.027355 -92.999539 -92.999539 C -57.220103 -142.227646 -204.44324 -232.7277 -154.143007 -266.983519 C -115.373098 -293.386876 -92.80823 -165.798921 -46.62558 -174.009034 C -15.366505 -179.566111 -30.158164 -248.241237 -0.000001 -258.165756 C 21.241335 -265.155905 45.454756 -245.426268 61.622247 -229.977361 C 79.116072 -213.261071 73.277997 -175.163607 95.120998 -164.754402 C 121.94843 -151.969885 164.510737 -206.315872 183.254555 -183.254556 C 206.807704 -154.276117 136.776645 -116.923268 137.864492 -79.596102 C 138.269406 -65.702296 146.684184 -51.402504 156.977779 -42.06207 C 185.115184 -16.530116 239.690336 -29.070279 264.154865 -0.000001 C 280.400818 19.304455 290.717276 52.287135 279.519915 74.897135 Z " fill="#f7f9f9" stroke="undefined" stroke-width="1" stroke-opacity="1" fill-opacity="1" visibility="visible" stroke-linecap="butt" stroke-linejoin="miter" stroke-miterlimit="4"></path></g></svg>